<svg width="121" height="65" viewBox="0 0 121 65" fill="none" xmlns="http://www.w3.org/2000/svg">
<path d="M30.84 58L28.44 51.8C29.16 47.3733 29.88 43.6 30.6 40.48C31.32 37.3333 32.04 34.7333 32.76 32.68C33.5067 30.6 34.2533 28.9467 35 27.72C35.7467 26.4667 36.48 25.5467 37.2 24.96C37.92 24.3467 38.6133 23.96 39.28 23.8C39.9733 23.6133 40.64 23.52 41.28 23.52C42.5067 23.52 43.4533 23.92 44.12 24.72C44.8133 25.52 45.16 26.4267 45.16 27.44C45.16 28.2667 44.9333 29.0133 44.48 29.68C43.7867 29.36 43.1067 29.2 42.44 29.2C41.56 29.2 40.7467 29.4 40 29.8C39.28 30.2 38.6 30.8533 37.96 31.76C37.3467 32.64 36.7467 33.8133 36.16 35.28C35.6 36.7467 35.04 38.5467 34.48 40.68C33.92 42.7867 33.3467 45.28 32.76 48.16C32.1733 51.0133 31.5333 54.2933 30.84 58ZM8.88 59C8.02667 59 7.33333 58.7333 6.8 58.2C6.29333 57.6667 6.04 57.0667 6.04 56.4C6.04 56.08 6.10667 55.76 6.24 55.44C7.12 55.3333 7.90667 54.9333 8.6 54.24C9.32 53.5467 9.96 52.6267 10.52 51.48C11.1067 50.3067 11.6267 48.96 12.08 47.44C12.56 45.92 12.9867 44.2933 13.36 42.56C13.76 40.8 14.12 39 14.44 37.16C14.7867 35.2933 15.12 33.44 15.44 31.6L18.2 36.72C17.88 39.7867 17.5067 42.4667 17.08 44.76C16.6533 47.0533 16.2 49.0267 15.72 50.68C15.24 52.3333 14.72 53.6933 14.16 54.76C13.6267 55.8267 13.0667 56.6667 12.48 57.28C11.92 57.8933 11.3333 58.3333 10.72 58.6C10.1067 58.8667 9.49333 59 8.88 59ZM6.4 43.76C5.30667 43.76 4.37333 43.52 3.6 43.04C2.85333 42.56 2.29333 41.92 1.92 41.12C1.54667 40.2933 1.36 39.4 1.36 38.44C1.36 37.48 1.54667 36.5333 1.92 35.6C2.29333 34.64 2.86667 33.7733 3.64 33C4.41333 32.2267 5.4 31.6 6.6 31.12C7.8 30.64 9.22667 30.4 10.88 30.4C12.4 30.4 13.8267 30.5067 15.16 30.72C16.4933 30.9067 17.8267 31.0933 19.16 31.28C20.4933 31.4667 21.88 31.5733 23.32 31.6L19.92 35.28L15.24 33.64L15.04 33.28C14.32 33.04 13.5733 32.92 12.8 32.92C11.3867 32.92 10.2267 33.3867 9.32 34.32C8.44 35.2533 8 36.5733 8 38.28C8 39.0533 8.06667 39.7867 8.2 40.48C8.36 41.1467 8.64 41.8933 9.04 42.72C8.66667 43.0933 8.22667 43.36 7.72 43.52C7.24 43.68 6.8 43.76 6.4 43.76ZM27.64 58.56C26.52 58.56 25.5867 58.32 24.84 57.84C24.0933 57.36 23.4933 56.72 23.04 55.92C22.5867 55.0933 22.2 54.1867 21.88 53.2L17.88 39.12L14.88 31.6H23.32L28.96 50.6L30.84 58C30.3867 58.16 29.8667 58.2933 29.28 58.4C28.6933 58.5067 28.1467 58.56 27.64 58.56ZM42.1572 58.8C40.6905 58.8 39.4905 58.48 38.5572 57.84C37.6239 57.1733 36.9305 56.2667 36.4772 55.12C36.0505 53.9467 35.8372 52.5733 35.8372 51C35.8372 49 36.1305 47.1467 36.7172 45.44C37.3305 43.7067 38.1839 42.2 39.2772 40.92C40.3705 39.6133 41.6372 38.6 43.0772 37.88C44.5172 37.16 46.0905 36.8 47.7972 36.8C49.1572 36.8 50.5572 37.0667 51.9972 37.6L57.7172 36.88L54.7572 52.48C54.7305 52.72 54.6905 53 54.6372 53.32C54.5839 53.64 54.5572 53.92 54.5572 54.16C54.5572 54.64 54.6905 55.08 54.9572 55.48C55.2505 55.8533 55.7039 56.0533 56.3172 56.08C56.1039 56.72 55.7572 57.24 55.2772 57.64C54.7972 58.04 54.2372 58.3333 53.5972 58.52C52.9839 58.7067 52.3572 58.8 51.7172 58.8C50.8905 58.8 50.1305 58.6133 49.4372 58.24C48.7439 57.8667 48.2772 57.2933 48.0372 56.52C47.3439 57.2133 46.5039 57.76 45.5172 58.16C44.5305 58.5867 43.4105 58.8 42.1572 58.8ZM44.4772 56.28C45.2772 56.28 45.9172 56 46.3972 55.44C46.9039 54.8533 47.3039 54.1467 47.5972 53.32C47.8905 52.4933 48.1039 51.6933 48.2372 50.92L50.1572 40.04C49.7572 39.7467 49.3439 39.5333 48.9172 39.4C48.5172 39.2667 48.1572 39.2 47.8372 39.2C47.0639 39.2 46.3839 39.5067 45.7972 40.12C45.2105 40.7333 44.7039 41.56 44.2772 42.6C43.8772 43.6133 43.5439 44.7333 43.2772 45.96C43.0372 47.16 42.8639 48.3867 42.7572 49.64C42.6505 50.8667 42.5972 51.9867 42.5972 53C42.5972 53.8267 42.7172 54.5867 42.9572 55.28C43.1972 55.9467 43.7039 56.28 44.4772 56.28ZM62.9994 58.76C62.7594 58.76 62.5194 58.76 62.2794 58.76C62.0394 58.76 61.7994 58.7467 61.5594 58.72C61.506 56.5333 61.4394 54.44 61.3594 52.44C61.2794 50.4133 61.1727 48.5333 61.0394 46.8C60.906 45.04 60.7327 43.5067 60.5194 42.2C60.3594 41.0267 60.1594 40.1333 59.9194 39.52C59.706 38.9067 59.3594 38.4533 58.8794 38.16C59.4927 37.6533 60.1327 37.3067 60.7994 37.12C61.466 36.9067 62.1727 36.8 62.9194 36.8C64.6527 36.8 65.8394 37.2533 66.4794 38.16C67.1194 39.0667 67.506 40.4133 67.6394 42.2C67.666 42.5733 67.6794 43.0133 67.6794 43.52C67.706 44.0267 67.7194 44.6667 67.7194 45.44C67.746 46.2133 67.7594 47.2267 67.7594 48.48C67.7594 49.28 67.7594 50.2133 67.7594 51.28C67.7594 52.32 67.746 53.5467 67.7194 54.96C68.5194 54.1067 69.2394 53.0933 69.8794 51.92C70.5194 50.7467 71.066 49.5067 71.5194 48.2C71.9994 46.8667 72.3727 45.5333 72.6394 44.2C72.906 42.8667 73.0394 41.6267 73.0394 40.48C73.0394 40.1333 73.0127 39.76 72.9594 39.36C72.9327 38.96 72.866 38.56 72.7594 38.16C73.1327 37.76 73.6127 37.44 74.1994 37.2C74.8127 36.9333 75.4927 36.8 76.2394 36.8C76.8527 36.8 77.3994 36.9067 77.8794 37.12C78.3594 37.3333 78.7327 37.68 78.9994 38.16C79.2927 38.6133 79.4394 39.2267 79.4394 40C79.4394 41.0133 79.2127 42.1867 78.7594 43.52C78.306 44.8267 77.7194 46.16 76.9994 47.52C76.2794 48.88 75.506 50.1467 74.6794 51.32C72.8394 53.9067 71.0127 55.8 69.1994 57C67.386 58.1733 65.3194 58.76 62.9994 58.76ZM84.4178 58.8C83.1911 58.8 82.1911 58.4933 81.4178 57.88C80.6711 57.24 80.2978 56.2933 80.2978 55.04C80.2978 54.56 80.3378 53.96 80.4178 53.24C80.5245 52.4933 80.6445 51.72 80.7778 50.92C80.9378 50.0933 81.0845 49.32 81.2178 48.6C81.3778 47.88 81.5111 47.28 81.6178 46.8L83.4178 37.6L90.6178 36.88L87.5378 52.48C87.5111 52.6933 87.4711 52.96 87.4178 53.28C87.3645 53.6 87.3378 53.8933 87.3378 54.16C87.3378 54.64 87.4711 55.08 87.7378 55.48C88.0045 55.8533 88.4445 56.0533 89.0578 56.08C88.7645 57.0133 88.1645 57.6933 87.2578 58.12C86.3511 58.5733 85.4045 58.8 84.4178 58.8ZM88.1378 34.32C86.9911 34.32 86.0445 34.0667 85.2978 33.56C84.5511 33.0533 84.1778 32.32 84.1778 31.36C84.1778 30.3467 84.5645 29.5867 85.3378 29.08C86.1378 28.5467 87.1111 28.28 88.2578 28.28C89.3778 28.28 90.2978 28.5467 91.0178 29.08C91.7378 29.5867 92.0978 30.32 92.0978 31.28C92.0978 32.2933 91.7111 33.0533 90.9378 33.56C90.1911 34.0667 89.2578 34.32 88.1378 34.32Z" fill="url(#paint0_linear_51_537)"/>
<path d="M91.337 5.8497C89.5532 6.18526 86.9084 7.79905 86.917 10.6529C86.924 13.2443 89.0498 14.815 89.0564 18.2108C89.0667 20.7656 87.6541 22.4856 86.1263 23.4394C86.7437 23.3848 87.42 23.3496 88.1641 23.3479C89.7248 23.3438 90.6657 23.4923 90.7242 23.5018L98.7266 13.7144C96.5041 10.3982 93.9086 7.8249 91.337 5.8497Z" fill="url(#paint1_linear_51_537)"/>
<path d="M98.0591 32.28C99.0679 30.7171 99.1942 28.2262 99.2798 25.689C99.3741 23.3225 99.8696 21.5417 103.046 21.5307C103.75 21.5282 104.421 21.6246 105.635 21.6213C110.288 21.6008 113.326 20.0038 115.216 18.9557C111.355 16.5018 105.719 13.9962 98.7262 13.7144C98.2706 14.9955 94.7269 24.8161 94.4589 25.6086C94.4993 25.6562 95.1199 26.3495 95.8949 27.7016C97.0383 29.5586 97.652 31.1318 98.0591 32.28Z" fill="url(#paint2_linear_51_537)"/>
<path d="M81.1565 24.2586C80.7519 24.2611 80.5506 23.9932 80.4959 23.5284C80.4444 23.0669 78.4429 4.8176 78.1449 2.05561C78.1017 1.65236 78.0012 0.911921 78 0.648152C77.9992 0.222756 78.277 0.000828877 78.6046 8.44268e-06C79.5529 -0.00368351 84.7208 1.20277 90.2052 5.03378C88.6251 5.47805 85.7666 7.11604 85.7798 10.5077C85.7901 13.5097 87.9468 15.162 87.9579 18.1739C87.9744 23.0718 82.3262 24.2566 81.1565 24.2586Z" fill="url(#paint3_linear_51_537)"/>
<path d="M98.5188 33.5825C98.6048 33.8097 98.6859 34.0009 98.7674 34.1346C98.8933 34.3479 99.0576 34.4447 99.2592 34.4439C99.3868 34.4423 99.5432 34.4 99.7161 34.3221C100.139 34.1285 116.849 26.3754 119.369 25.2165C119.734 25.0417 120.427 24.7333 120.655 24.5999C120.892 24.4658 121 24.2693 121 24.0699C120.999 23.9584 120.966 23.8456 120.903 23.743C120.588 23.2352 118.971 21.525 116.268 19.656C114.122 20.8337 110.771 22.6551 105.786 22.6752C104.564 22.6764 104.288 22.5948 103.453 22.5981C101.02 22.6067 100.412 23.6441 100.323 25.7703C100.308 26.1719 100.301 26.7126 100.278 27.3053C100.201 29.2063 99.9758 31.828 98.5188 33.5825Z" fill="url(#paint4_linear_51_537)"/>
<defs>
<linearGradient id="paint0_linear_51_537" x1="35.6" y1="17" x2="76.5" y2="65" gradientUnits="userSpaceOnUse">
<stop stop-color="#FF4F4F"/>
<stop offset="1" stop-color="#FFA955"/>
</linearGradient>
<linearGradient id="paint1_linear_51_537" x1="88.0682" y1="10.7751" x2="97.1227" y2="22.0436" gradientUnits="userSpaceOnUse">
<stop stop-color="#E1002A"/>
<stop offset="1" stop-color="#FFA19F"/>
</linearGradient>
<linearGradient id="paint2_linear_51_537" x1="97.6579" y1="18.8947" x2="105.579" y2="34.335" gradientUnits="userSpaceOnUse">
<stop stop-color="#E1002A"/>
<stop offset="1" stop-color="#FFA19F"/>
</linearGradient>
<linearGradient id="paint3_linear_51_537" x1="88.0389" y1="24.6928" x2="72.7584" y2="15.0651" gradientUnits="userSpaceOnUse">
<stop stop-color="#FFEE00"/>
<stop offset="1" stop-color="#EE7602"/>
</linearGradient>
<linearGradient id="paint4_linear_51_537" x1="117.01" y1="34.7086" x2="108.507" y2="18.5216" gradientUnits="userSpaceOnUse">
<stop stop-color="#FFEE00"/>
<stop offset="1" stop-color="#EE7602"/>
</linearGradient>
</defs>
</svg>
