<svg width="35" height="30" viewBox="0 0 35 30" fill="none" xmlns="http://www.w3.org/2000/svg">
<path d="M5.15004 22.0175C4.17671 21.519 3.37742 21.1162 3.37742 20.3014C3.37742 19.6785 3.83228 19.2254 4.73105 19.2254C5.06173 19.2254 5.33202 19.2683 5.61134 19.3243C5.75745 19.3518 5.91344 19.3754 6.04214 19.3754C6.82704 19.3754 7.27008 18.8627 7.56466 17.8896L7.68649 17.4923C7.56122 17.4363 6.27871 16.8193 4.60643 16.8193C1.94601 16.8193 0.541668 18.6885 0.542527 20.6276C0.542527 21.6061 0.822063 22.3146 1.25974 22.8731C1.82354 23.5913 2.62755 24.0614 3.37978 24.4632C4.4758 25.0523 5.46502 25.4878 5.46502 26.361C5.46567 27.1357 4.73471 27.5766 3.75751 27.5766C2.41871 27.5766 1.24878 26.7381 1.09924 26.6371L0 28.8942C0.195525 29.0152 1.61125 29.9998 3.94122 29.9998C6.42395 29.9979 8.304 28.4388 8.304 26.0393C8.30379 23.6518 6.56125 22.7668 5.15004 22.0175Z" fill="#E1002A"/>
<path d="M14.861 23.1323L19.3647 17.083H16.1558L12.5637 22.3033H12.51V17.083H9.86523L9.86588 29.8975H10.0232C11.1667 29.8975 12.5278 29.318 12.5278 27.2252V24.2831H12.5815L16.2432 29.7379H19.609L14.861 23.1323Z" fill="#E1002A"/>
<path d="M19.5146 3.35645C18.5834 3.54899 17.2027 4.47498 17.2072 6.11254C17.2108 7.59945 18.3206 8.50073 18.324 10.4492C18.3294 11.9152 17.592 12.9022 16.7944 13.4494C17.1167 13.4181 17.4697 13.3979 17.8582 13.3969C18.673 13.3946 19.1641 13.4798 19.1947 13.4852L23.3722 7.8692C22.212 5.96637 20.857 4.48981 19.5146 3.35645Z" fill="#E1002A"/>
<path d="M23.0239 18.5221C23.5506 17.6253 23.6165 16.196 23.6612 14.7402C23.7104 13.3823 23.9691 12.3605 25.6274 12.3541C25.9948 12.3527 26.3448 12.408 26.9787 12.4061C29.4079 12.3944 30.994 11.478 31.9807 10.8766C29.9648 9.46857 27.0225 8.03085 23.3722 7.86914C23.1344 8.60424 21.2844 14.2393 21.1445 14.6941C21.1656 14.7214 21.4896 15.1192 21.8942 15.895C22.4911 16.9606 22.8114 17.8633 23.0239 18.5221Z" fill="#E1002A"/>
<path d="M14.2 13.9196C13.9888 13.921 13.8837 13.7673 13.8552 13.5006C13.8283 13.2358 12.7834 2.76434 12.6279 1.17951C12.6053 0.948127 12.5529 0.523261 12.5522 0.37191C12.5518 0.127818 12.6968 0.00047561 12.8679 4.84441e-06C13.3629 -0.0021136 16.0607 0.690147 18.9238 2.88839C18.0989 3.14331 16.6067 4.08319 16.6136 6.02933C16.6189 7.75186 17.7448 8.69999 17.7506 10.4282C17.7592 13.2386 14.8107 13.9184 14.2 13.9196Z" fill="#EE7602"/>
<path d="M23.2637 19.2693C23.3086 19.3997 23.3509 19.5094 23.3934 19.5862C23.4592 19.7086 23.5449 19.7641 23.6502 19.7636C23.7168 19.7627 23.7985 19.7384 23.8887 19.6937C24.1094 19.5826 32.8326 15.1339 34.1482 14.4689C34.339 14.3687 34.7004 14.1917 34.8196 14.1152C34.9432 14.0382 34.9997 13.9254 34.9997 13.811C34.9992 13.747 34.982 13.6823 34.949 13.6234C34.7846 13.332 33.9406 12.3507 32.5296 11.2783C31.4091 11.9541 29.6597 12.9992 27.0573 13.0107C26.4196 13.0114 26.2752 12.9646 25.8397 12.9665C24.5692 12.9714 24.252 13.5667 24.2056 14.7867C24.1979 15.0171 24.1942 15.3274 24.182 15.6675C24.1418 16.7583 24.0243 18.2626 23.2637 19.2693Z" fill="#EE7602"/>
</svg>
